<?xml version="1.0" encoding="utf-8"?>
<!-- Generator: Adobe Illustrator 21.1.0, SVG Export Plug-In . SVG Version: 6.00 Build 0)  -->
<svg version="1.1" id="Layer_1" xmlns="http://www.w3.org/2000/svg" xmlns:xlink="http://www.w3.org/1999/xlink" x="0px" y="0px"
	 viewBox="0 0 723 436" style="enable-background:new 0 0 723 436;" xml:space="preserve">
<style type="text/css">
	.st0{clip-path:url(#SVGID_2_);fill:url(#SVGID_3_);}
	.st1{fill-rule:evenodd;clip-rule:evenodd;fill:#FFFFFF;}
	.st2{fill-rule:evenodd;clip-rule:evenodd;fill:url(#SVGID_4_);}
	.st3{fill:#ED1C24;}
	.st4{fill-rule:evenodd;clip-rule:evenodd;fill:#ED1C24;}
</style>
<g>
	<defs>
		<path id="SVGID_1_" d="M626.9,101.9c7.5,4.7,15,9.5,22.5,14.2c7.5,4.7,15,9.5,22.5,14.3c7.5,4.8,15,9.6,22.6,14.4
			c7.6,4.8,15.2,9.6,22.8,14.3c-9.2,4.2-18.6,8.4-28.1,12.7c-9.6,4.4-19.4,8.8-29.3,13.3c-10.1,4.6-20.4,9.3-30.8,14
			c-10.5,4.8-21.2,9.6-32,14.5c2.7-10.1,5.3-20.1,7.9-29.9c2.6-9.7,5.1-19.3,7.6-28.7c2.4-9.2,4.9-18.3,7.2-27.2
			C622.3,119,624.6,110.4,626.9,101.9"/>
	</defs>
	<clipPath id="SVGID_2_">
		<use xlink:href="#SVGID_1_"  style="overflow:visible;"/>
	</clipPath>
	
		<linearGradient id="SVGID_3_" gradientUnits="userSpaceOnUse" x1="-56.9345" y1="759.4969" x2="-56.0547" y2="759.4969" gradientTransform="matrix(-22.8323 -133.1147 136.0374 -23.3336 -103952.6328 10359.1924)">
		<stop  offset="0" style="stop-color:#ED1C24"/>
		<stop  offset="1" style="stop-color:#BF2727"/>
	</linearGradient>
	<polygon class="st0" points="735.9,210.4 713.9,81.9 578.6,105.1 600.7,233.6 	"/>
</g>
<path class="st1" d="M652.8,140.1c0.5,3.8,1,7.6,1.5,11.5c4.5,0.2,8.9,0.4,13.4,0.6c-4.1,2.2-8.3,4.4-12.5,6.6
	c0.5,3.9,1,7.9,1.6,11.8c-3.2-2.5-6.3-5.1-9.4-7.6c-4.3,2.3-8.5,4.6-12.9,6.9c2.4-3.9,4.8-7.8,7.1-11.6c-3.1-2.5-6.2-5-9.3-7.5
	c4.6,0.2,9.1,0.4,13.6,0.6C648.2,147.5,650.5,143.8,652.8,140.1"/>
<linearGradient id="SVGID_4_" gradientUnits="userSpaceOnUse" x1="8.6274" y1="214.0652" x2="704.5938" y2="214.0652">
	<stop  offset="0" style="stop-color:#21409A"/>
	<stop  offset="1" style="stop-color:#2160AD"/>
</linearGradient>
<path class="st2" d="M429.6,141.2c-16.4,13.6-20.5,25.6-20.8,34.1c0.4,25.4,27,8.9,36.1-3C464.6,146.6,462.4,114.1,429.6,141.2
	 M670.8,245.8c-16.8-0.9-42.2,26.7-45.8,41.4C637.9,279.9,690.7,252,670.8,245.8z M306.7,255.9c-19,15.7-23.8,29.7-24.1,39.6
	c0.4,29.4,31.3,10.3,41.8-3.4C347.4,262.2,344.7,224.4,306.7,255.9z M587.4,196.5c-9.3,8-18.9,14.8-28.2,11.6
	c-6.4-2.2-8.6-9.1-6.7-16.3l15.2-47c1.1-3.7,2.2-9.1,2.4-13c-0.1-12.1-21.1,6.1-39.6,26.6l-15.9,50.4l-19.8,0l7.5-29
	c-11.4,12.6-28.6,29.8-46.2,28.8c-15.7-1-8.6-20-6.1-28.9c-6.6,16.1-43,42.7-59.3,21.4c-5.4-7-7-15.8-5.9-25
	c0.2-1.4,0.4-2.9,0.7-4.3c-16.2,20.3-37.8,36.5-59.8,44.3c-18.7,6.7-38.1,8.8-56.2,6.7c2.2,13,1.9,26.2-0.3,39.4
	c10.5-14.2,24.6-24.9,35.1-30.6c11.3-6.1,30.3-14,41.7-3.2c3.8,3.6,4.3,6.7,4.7,6.8l3.2-12.3l23,0l-26,87.7
	c-0.3,3.1,1.3,4.2,3.6,3.5c10.3-3.2,29.5-20.2,42.9-36.9l12.1-34.8c0.2-0.7,0.4-1.4,0.4-2.1c0-1.9-1.5-3.4-3.4-3.4l-15.2,0.1
	l3.7-14.3l42.5,0l-8.1,31.2c11.4-11.9,41.5-47.9,61.6-26.1c6.8,7.6,3,15.8,0.9,23.9c-6.2,23.3-12.1,34.8-18.3,58.1
	c-0.5,5.7,16.7-5.1,27.6-16c3.7-33.2,40-70.6,75-69.6c10.8,0.3,20.4,5,23.6,18.4c1.9,7.9,0.9,16.6-2.3,22.6
	c-8.8,16.5-32.9,2.4-20.4-10.5c5.6-5.8,0.9-10.6-3.3-11.9c-26-1.3-46.8,33.5-47.4,54.4c0.4,27.5,39.8,21.2,73.2-0.7
	c3.5-34.4,39.5-74.1,76.3-74.4c20.7,2.6,30.7,27.9,12.8,47.6c-15.5,17.2-50.9,27.6-62.2,31.9c1.1,4.5,3.2,8.3,6.1,10.7
	c18.2,15.5,58.1-19.1,72-35.2l-6.8,23.3c-18.9,23.5-42.6,35.9-68.3,34.8c-16.8-0.7-25.7-13.8-29.1-24.4c-19.8,15.2-85.3,44.7-96.9,4
	c-0.7-1.8-1.3-3.7-1.7-5.5c-9.6,9.1-30.8,28.8-44.9,23.8c-7.4-2.6-9.9-10.6-7.7-18.9l17.6-54.5c1.3-4.2,2.5-10.6,2.8-15
	c-0.1-14.1-24.5,7.1-45.9,30.8L405.3,334l-23,0l8.7-33.6c-13.2,14.6-33.1,34.6-53.5,33.3c-18.2-1.1-10-23.1-7.1-33.5
	c-7.6,18.6-49.8,49.5-68.8,24.8c-4.4-5.8-6.6-12.6-7.1-19.9c-18.8,37.6-51.5,69.9-86.4,85.5c-42.9,19.2-79.3,20-112.6,10.9
	c-25.9-7.1-48.4-30.9-46.9-43.2c10.9,10.8,24.1,17.4,38.5,20.6c16.3,3.7,35.6,2.8,52-0.4c38.2-7.5,76.3-28.5,99-50.7
	c60.6-59.3,61.9-153.1-42.8-170.4c-0.6-0.1-1.2-0.2-1.8-0.3c-17,57.5-34.2,114.2-51.7,171.3c-0.9,8.3-3.2,20.7,5.6,25.9
	c-6.7,2.3-13.3,4.1-19.9,5.4c-28.2-0.5-17.6-28.9-13-45c16.3-52.8,33.8-105.5,47.9-159c-27.2,1.9-55.2,11.7-79.5,32.5
	c57.1-72.6,165.6-68.9,208.8-8.2c4.5,6.4,8.2,13,11,19.7c17.4,1.4,35.9-1.9,53.4-8.7C395,160.6,424.3,62.1,329.8,38.7
	c-2.3-0.6-4.6-1.1-6.9-1.5c-11.3,39.8-22.1,79.7-33.8,119.4c-2.4,8.1-4.2,18.2,2.4,22c-6.3,2.2-21.7,7-27-0.2
	c-4.5-6.1-1.2-16.8,1.5-24.9c12.7-38.2,23.2-78.8,34.4-117.9c-20.3,0-41.1,8.1-57.4,19.9C290.4,4,372.3,13.2,401.3,61.7
	c14.2,23.7,13.8,50.2,4.5,74.7c7.3-7.2,15.2-12.8,21.6-16.3c9.7-5.3,26.1-12.1,36-2.8c3.3,3.1,3.7,5.8,4.1,5.9l2.8-10.7l19.9,0
	l-22.5,75.7c-0.3,2.6,1.2,3.6,3.1,3c8.9-2.8,25.5-17.4,37-31.8l10.5-30c0.1-0.6,0.3-1.2,0.3-1.8c0-1.6-1.3-2.9-2.9-2.9l-13.1,0.1
	l3.2-12.3l36.7,0l-7,26.9c9.8-10.3,35.8-41.3,53.2-22.5c5.8,6.5,2.6,13.7,0.7,20.7c-5.3,20.1-10.5,30-15.8,50.1
	c-0.4,4.5,9.9-1,19.1-9.2L587.4,196.5z"/>
<path class="st3" d="M589.5,376.8l-3.2,14.3c-0.1,0.3-0.2,0.4-0.5,0.4h-2.8c-0.2,0-0.3-0.1-0.3-0.2c0-0.1,0-0.2,0-0.2l1.3-5.8h-4
	l-1.3,5.8c-0.1,0.3-0.2,0.4-0.5,0.4h-2.8c-0.3,0-0.4-0.1-0.3-0.4l3.1-13.6c0.1-0.2,0.1-0.3,0.2-0.4c0,0,0.2-0.1,0.5-0.1l2.7-0.6
	c0.1,0,0.2,0,0.3,0c0.1,0,0.1,0.2,0.1,0.4l-1.2,5.6h4l1.1-4.9c0-0.2,0.1-0.3,0.1-0.4c0-0.1,0.2-0.1,0.5-0.2l0.4-0.1l2.3-0.5
	c0.1,0,0.2,0,0.3,0C589.6,376.5,589.6,376.6,589.5,376.8 M567.4,380.2l-0.2-0.1c-0.4-0.3-0.8-0.6-1.1-0.7c-0.3-0.1-0.6-0.2-0.9-0.2
	c-0.5,0-1,0.2-1.4,0.6c-0.3,0.2-0.6,0.6-0.8,1c-0.5,0.8-0.9,1.8-1.2,3.1c-0.3,1.3-0.5,2.4-0.5,3.5c0,0.5,0.1,0.9,0.2,1.2
	c0.2,0.5,0.6,0.7,1.2,0.7c0.7,0,1.4-0.3,2.1-1c0.7-0.8,1.2-1.8,1.5-3.1L567.4,380.2z M571.5,377.6l-2,9.3c-0.1,0.4-0.1,0.8-0.2,1.2
	c0,0.4,0,0.7,0,0.8l0.1,1.2l0.1,0.7c0,0.1-0.1,0.2-0.3,0.3l-2.5,1c-0.1,0-0.2,0-0.3,0.1c-0.1,0-0.2-0.1-0.3-0.2
	c-0.1-0.1-0.1-0.4-0.2-0.8c-0.1-0.4-0.1-0.7-0.1-1.1c0-0.3,0-0.5,0-0.6c-0.5,0.7-1.2,1.3-2.1,1.9c-0.9,0.5-1.8,0.8-2.7,0.8
	c-0.9,0-1.6-0.3-2.2-0.9c-0.7-0.8-1.1-2.1-1.1-3.8c0-1.6,0.2-3.1,0.6-4.5c0.4-1.4,1-2.6,1.6-3.5c0.7-0.9,1.4-1.7,2.3-2.1
	c0.8-0.5,1.7-0.7,2.5-0.7c0.7,0,1.4,0.2,2,0.5c0.5,0.3,0.9,0.6,1.2,1.1l0.3-0.8c0.1-0.2,0.2-0.3,0.4-0.3h2.3c0.2,0,0.3,0.1,0.3,0.4
	C571.5,377.4,571.5,377.5,571.5,377.6z M553.2,379.5c0,0.3,0,0.7-0.1,1.1c-0.1,0.4-0.1,0.8-0.2,1.2l-2.2,9.3
	c-0.1,0.2-0.2,0.4-0.4,0.4h-2.8c-0.3,0-0.4-0.1-0.4-0.4c0-0.1,0-0.2,0-0.3l2-8.7c0.1-0.3,0.1-0.6,0.1-0.8c0-0.2,0.1-0.5,0.1-0.7
	c0-0.4-0.1-0.7-0.3-0.9c-0.2-0.2-0.4-0.3-0.6-0.3c-0.8,0-1.5,0.4-2.1,1.2c-0.7,1-1.4,2.5-1.8,4.6l-1.3,5.9c0,0.2-0.2,0.4-0.4,0.4
	h-2.8c-0.3,0-0.4-0.1-0.4-0.4c0-0.1,0-0.2,0-0.3l1.9-8.4c0.1-0.4,0.2-0.7,0.2-1c0-0.3,0.1-0.5,0.1-0.8c0-0.4-0.1-0.6-0.3-0.8
	c-0.2-0.2-0.4-0.3-0.8-0.3c-0.7,0-1.4,0.4-1.9,1.1c-0.8,1-1.4,2.5-1.9,4.7l-1.3,5.9c0,0.2-0.2,0.4-0.4,0.4h-2.8
	c-0.3,0-0.4-0.2-0.4-0.6l2.1-9.3c0.1-0.3,0.1-0.7,0.2-1.1c0-0.4,0.1-0.7,0.1-0.9c0-0.2,0-0.4,0-0.6c0-0.2-0.1-0.4-0.1-0.6l-0.1-0.7
	c0-0.1,0.1-0.2,0.3-0.3l2.5-1c0.2-0.1,0.3-0.1,0.4,0.1c0.2,0.2,0.3,0.5,0.3,0.9c0,0.4,0.1,0.8,0.1,1.2c0,0.4,0,0.7,0,0.8l0.1-0.2
	c0.7-0.8,1.2-1.4,1.8-1.7c1-0.7,1.9-1.1,2.9-1.1c0.8,0,1.5,0.3,1.9,0.8c0.5,0.5,0.7,1.1,0.7,1.9c0,0.2,0,0.3,0,0.4
	c0.6-0.9,1.4-1.6,2.2-2.2c0.9-0.6,1.8-0.8,2.7-0.8c1.1,0,1.9,0.4,2.3,1.2C553,378.1,553.2,378.7,553.2,379.5z M518.3,378.1
	c0,0-0.1,0.1-0.2,0.3l-5.5,5.6l3.3,6.4l0.1,0.3c0,0.1,0,0.2-0.1,0.2c-0.1,0-0.1,0.1-0.1,0.1l-2.6,0.7l-0.4,0.1
	c-0.1,0-0.2-0.1-0.2-0.2l-1.4-3.3c-0.2-0.4-0.3-0.7-0.5-1c-0.1-0.3-0.2-0.6-0.3-0.8c-0.4,0.6-0.9,1.3-1.5,1.9l-3,3.3
	c-0.1,0.1-0.3,0.2-0.4,0.1l-2.5-1c-0.2-0.1-0.2-0.2-0.2-0.3c0-0.1,0.1-0.2,0.2-0.3l6-6.1l-3-6.1c-0.1-0.3,0-0.4,0.2-0.5l1.8-0.5
	l0.7-0.2h0.3c0.2,0,0.3,0.1,0.3,0.2l1.9,4.8l1.5-1.8l2.6-3c0.1-0.1,0.2-0.2,0.3-0.2c0.1,0,0.2,0,0.2,0c0,0,0.1,0,0.1,0.1l2.3,1
	C518.2,377.9,518.3,378,518.3,378.1z M500.8,377.1l-2.2,9.8c-0.2,0.8-0.3,1.4-0.3,2c0,0.2,0,0.4,0.1,0.6c0,0.2,0.1,0.4,0.1,0.5
	l0.1,0.7c0,0.1-0.1,0.2-0.3,0.3l-2.5,1h-0.3c-0.1,0-0.1-0.1-0.2-0.3c-0.1-0.2-0.1-0.3-0.1-0.4c0-0.1-0.1-0.5-0.1-1
	c0-0.6-0.1-1-0.1-1.3l-0.2,0.2c-0.3,0.4-0.5,0.6-0.6,0.7c-0.2,0.2-0.4,0.4-0.6,0.6c-0.6,0.5-1.2,0.9-1.8,1.1
	c-0.6,0.2-1.2,0.4-1.7,0.4c-0.9,0-1.6-0.3-2.2-0.9c-0.6-0.6-0.8-1.4-0.8-2.4c0-0.3,0-0.7,0.1-1c0.1-0.4,0.1-0.7,0.2-1.1l2.2-9.3
	l0.1-0.2c0.1-0.1,0.3-0.2,0.7-0.2l2.2-0.4c0.3-0.1,0.5-0.1,0.6,0c0.1,0.1,0.1,0.2,0.1,0.3l-0.1,0.4l-2.2,9.1
	c-0.1,0.3-0.1,0.5-0.1,0.8c0,0.2-0.1,0.5-0.1,0.7c0,0.5,0.1,0.8,0.3,0.9c0.2,0.2,0.4,0.2,0.7,0.2c0.7,0,1.3-0.3,2-0.8
	c0.5-0.5,0.9-1.1,1.2-1.8c0.3-0.8,0.6-1.8,0.9-3.1l1.3-5.8c0-0.2,0.2-0.3,0.4-0.4l2.6-0.5c0.3-0.1,0.5-0.1,0.6,0
	c0.1,0.1,0.1,0.1,0.1,0.3c0,0.1,0,0.1,0,0.2C500.8,377,500.8,377.1,500.8,377.1z M483.5,378.9c0.1,0.3-0.1,0.4-0.5,0.5l-0.5,0.1
	c-0.3,0-0.6,0.1-0.8,0.3c-0.2,0.2-0.4,0.5-0.7,1.1l-0.6,1.1c-0.3,0.6-0.6,1.1-1,1.4c-0.4,0.3-0.8,0.5-1.3,0.6l0,0.1
	c0.6,0.2,1,0.5,1.3,0.9c0.2,0.3,0.3,0.7,0.4,1.2l0.2,1.6c0.1,0.4,0.1,0.7,0.3,0.8c0.1,0.1,0.3,0.2,0.6,0.3l0.5,0.1
	c0.2,0,0.3,0.1,0.3,0.2c0,0.1,0,0.2-0.1,0.4l-0.8,1.9c-0.2,0.3-0.4,0.4-0.7,0.4c-0.2,0-0.5,0-0.9-0.1c-0.4-0.1-0.7-0.1-0.9-0.2
	c-0.7-0.2-1.1-0.5-1.3-1c-0.2-0.4-0.3-0.9-0.3-1.4l-0.2-2.5c-0.1-0.6-0.2-1-0.4-1.2c-0.2-0.2-0.5-0.3-1-0.3h-1.3l-1.3,5.7
	c-0.1,0.3-0.3,0.4-0.6,0.4h-2.5c-0.4,0-0.5-0.1-0.4-0.4l3.1-13.6c0-0.1,0.1-0.2,0.1-0.3c0.1-0.1,0.2-0.1,0.5-0.2l0.4-0.1l2.2-0.5
	c0.2-0.1,0.3-0.1,0.4,0c0.1,0.1,0.1,0.2,0,0.4l-1.3,5.6h1.3c0.6,0,1-0.1,1.2-0.3c0.3-0.2,0.5-0.6,0.8-1.2l0.8-1.7
	c0.2-0.5,0.5-0.9,0.8-1.3c0.5-0.6,1-1,1.7-1.2c0.2-0.1,0.5-0.2,0.9-0.3c0.4-0.1,0.8-0.1,1.1-0.1c0.2,0,0.3,0.1,0.4,0.3L483.5,378.9z
	 M466.2,378l-1.2,1.9c-0.1,0.1-0.1,0.1-0.2,0.1c0,0-0.1,0-0.2,0.1c0,0-0.2-0.1-0.6-0.3c-0.5-0.3-1.1-0.4-1.8-0.4
	c-0.5,0-0.9,0.1-1.2,0.2c-0.3,0.1-0.7,0.3-1.1,0.7c-0.7,0.6-1.3,1.6-1.7,3c-0.3,1.1-0.5,2.2-0.5,3.4c0,0.7,0.1,1.2,0.4,1.5
	c0.4,0.6,0.9,0.8,1.7,0.8c0.4,0,0.8,0,1.1-0.1c0.3-0.1,0.6-0.2,1-0.4l0.5-0.2c0.1,0.1,0.2,0.1,0.2,0.1l0.8,2.1c0.1,0.2,0,0.3,0,0.4
	c-0.1,0.1-0.3,0.3-0.7,0.4c-1.1,0.5-2.1,0.7-3.2,0.7c-1.5,0-2.7-0.4-3.7-1.2c-1.2-1-1.8-2.5-1.8-4.6c0-1.9,0.3-3.5,1-5
	c0.6-1.3,1.5-2.4,2.6-3.3c0.7-0.6,1.5-1,2.2-1.2c0.8-0.2,1.6-0.4,2.4-0.4c0.7,0,1.3,0.1,1.9,0.2c0.6,0.2,1.1,0.4,1.6,0.7
	C466.2,377.6,466.3,377.8,466.2,378z M450.2,376.8l-3.2,14.3c-0.1,0.3-0.2,0.4-0.5,0.4h-2.8c-0.2,0-0.3-0.1-0.3-0.2
	c0-0.1,0-0.2,0-0.2l1.3-5.8h-4l-1.3,5.8c-0.1,0.3-0.2,0.4-0.5,0.4h-2.8c-0.3,0-0.4-0.1-0.3-0.4l3.1-13.6c0.1-0.2,0.1-0.3,0.2-0.4
	c0,0,0.2-0.1,0.5-0.1l2.7-0.6c0.1,0,0.2,0,0.3,0c0.1,0,0.1,0.2,0.1,0.4l-1.2,5.6h4l1.1-4.9c0-0.2,0.1-0.3,0.1-0.4
	c0-0.1,0.2-0.1,0.5-0.2l0.4-0.1l2.3-0.5c0.1,0,0.2,0,0.3,0C450.2,376.5,450.3,376.6,450.2,376.8z M432.2,377.1l-2.2,9.8
	c-0.2,0.8-0.3,1.4-0.3,2c0,0.2,0,0.4,0.1,0.6c0,0.2,0.1,0.4,0.1,0.5l0.1,0.7c0,0.1-0.1,0.2-0.3,0.3l-2.5,1h-0.3
	c-0.1,0-0.1-0.1-0.2-0.3c-0.1-0.2-0.1-0.3-0.1-0.4c0-0.1-0.1-0.5-0.1-1c0-0.6-0.1-1-0.1-1.3l-0.2,0.2c-0.3,0.4-0.5,0.6-0.6,0.7
	c-0.2,0.2-0.4,0.4-0.6,0.6c-0.6,0.5-1.2,0.9-1.8,1.1c-0.6,0.2-1.2,0.4-1.7,0.4c-0.9,0-1.6-0.3-2.2-0.9c-0.6-0.6-0.8-1.4-0.8-2.4
	c0-0.3,0-0.7,0.1-1c0.1-0.4,0.1-0.7,0.2-1.1l2.2-9.3l0.1-0.2c0.1-0.1,0.3-0.2,0.7-0.2l2.2-0.4c0.3-0.1,0.5-0.1,0.6,0
	c0.1,0.1,0.1,0.2,0.1,0.3l-0.1,0.4l-2.2,9.1c-0.1,0.3-0.1,0.5-0.1,0.8c0,0.2-0.1,0.5-0.1,0.7c0,0.5,0.1,0.8,0.3,0.9
	c0.2,0.2,0.4,0.2,0.7,0.2c0.7,0,1.3-0.3,2-0.8c0.5-0.5,0.9-1.1,1.2-1.8c0.3-0.8,0.6-1.8,0.9-3.1l1.3-5.8c0-0.2,0.2-0.3,0.4-0.4
	l2.6-0.5c0.3-0.1,0.5-0.1,0.6,0c0.1,0.1,0.1,0.1,0.1,0.3c0,0.1,0,0.1,0,0.2C432.2,377,432.2,377.1,432.2,377.1z M410.3,381.8
	c0-0.5-0.1-0.9-0.3-1.2c-0.3-0.5-0.8-0.7-1.4-0.7c-0.7,0-1.3,0.2-1.8,0.7c-0.4,0.3-0.7,0.7-1,1.3c-0.4,0.7-0.7,1.6-0.9,2.5
	c-0.2,1-0.4,1.9-0.4,2.8c0,0.5,0.1,0.9,0.3,1.2c0.3,0.5,0.7,0.7,1.4,0.7c0.5,0,1-0.1,1.4-0.4c0.6-0.4,1.1-0.9,1.5-1.7
	c0.3-0.7,0.6-1.5,0.8-2.5C410.2,383.5,410.3,382.6,410.3,381.8z M416.4,371.6c0,0.2,0,0.4-0.2,0.5c0,0-0.2,0.1-0.4,0.2l-6.8,2.5
	c-1.2,0.4-2.2,1.1-2.9,1.9c-0.7,0.7-1.2,1.6-1.5,2.5l-0.1,0.4h0.1c0.7-1.1,1.5-1.8,2.4-2.2c0.7-0.3,1.5-0.5,2.3-0.5
	c1.5,0,2.6,0.5,3.4,1.4c0.8,0.9,1.2,2.2,1.2,3.8c0,1.4-0.2,2.7-0.7,3.9c-0.4,1.2-1,2.3-1.8,3.2c-0.9,1.1-1.9,1.9-3.2,2.3
	c-0.9,0.3-1.8,0.5-2.8,0.5c-2,0-3.4-0.7-4.2-2.2c-0.5-0.9-0.7-2-0.7-3.3c0-1.5,0.2-3.1,0.7-5.1c0.5-1.9,1.1-3.5,1.8-4.8
	c0.7-1.2,1.5-2.2,2.6-3.1c1.1-0.9,2.2-1.6,3.5-2.1l5.6-2.1c0.3-0.1,0.5-0.1,0.6-0.1c0.2,0,0.3,0.1,0.3,0.3L416.4,371.6z
	 M398.5,377.3c0,0.1-0.1,0.2-0.2,0.4l-6.4,13.2c-0.6,1.2-1.1,2.1-1.4,2.8s-0.7,1.2-1,1.6c-0.7,0.9-1.5,1.6-2.4,2
	c-0.8,0.4-1.6,0.5-2.4,0.5c-0.7,0-1.5-0.2-2.2-0.5c-0.2-0.1-0.4-0.2-0.7-0.3c-0.3-0.2-0.5-0.3-0.5-0.4l0.1-0.3l1.1-1.9
	c0-0.1,0.1-0.1,0.1-0.2c0,0,0.1,0,0.1,0l0.6,0.2c0.1,0,0.3,0.1,0.6,0.2c0.3,0.1,0.7,0.2,1,0.2c0.7,0,1.3-0.2,1.7-0.5
	c0.3-0.2,0.6-0.6,0.8-1l1-1.8h-1.2c-0.2,0-0.4-0.1-0.4-0.4l-1.6-13.5c0-0.2-0.1-0.3-0.1-0.3c0-0.1,0.1-0.2,0.3-0.3
	c0.2-0.1,0.4-0.1,0.8-0.1l2-0.3c0.2,0,0.3,0,0.4,0c0.1,0,0.1,0.2,0.2,0.5l0.5,6.9c0,0.5,0,1,0.1,1.7c0.1,2.3,0.2,3.6,0.2,3.6
	c0.4-1.2,0.8-2.1,1-2.8c0.3-0.7,0.6-1.4,0.9-2.1l3.4-7.5c0.1-0.2,0.3-0.3,0.6-0.2l2.5,0.3C398.3,377.1,398.5,377.2,398.5,377.3z
	 M381.1,378.9c0.1,0.3-0.1,0.4-0.5,0.5l-0.5,0.1c-0.3,0-0.6,0.1-0.8,0.3c-0.2,0.2-0.4,0.5-0.7,1.1L378,382c-0.3,0.6-0.6,1.1-1,1.4
	c-0.4,0.3-0.8,0.5-1.3,0.6l0,0.1c0.6,0.2,1,0.5,1.3,0.9c0.2,0.3,0.3,0.7,0.4,1.2l0.2,1.6c0.1,0.4,0.1,0.7,0.3,0.8
	c0.1,0.1,0.3,0.2,0.6,0.3l0.5,0.1c0.2,0,0.3,0.1,0.3,0.2c0,0.1,0,0.2-0.1,0.4l-0.8,1.9c-0.2,0.3-0.4,0.4-0.7,0.4
	c-0.2,0-0.5,0-0.9-0.1c-0.4-0.1-0.7-0.1-0.9-0.2c-0.7-0.2-1.1-0.5-1.3-1c-0.2-0.4-0.3-0.9-0.3-1.4l-0.2-2.5c-0.1-0.6-0.2-1-0.4-1.2
	c-0.2-0.2-0.5-0.3-1-0.3h-1.3l-1.3,5.7c-0.1,0.3-0.3,0.4-0.6,0.4h-2.5c-0.4,0-0.5-0.1-0.4-0.4l3.1-13.6c0-0.1,0.1-0.2,0.1-0.3
	c0.1-0.1,0.2-0.1,0.5-0.2l0.4-0.1l2.2-0.5c0.2-0.1,0.3-0.1,0.4,0c0.1,0.1,0.1,0.2,0,0.4l-1.3,5.6h1.3c0.6,0,1-0.1,1.2-0.3
	c0.3-0.2,0.5-0.6,0.8-1.2l0.8-1.7c0.2-0.5,0.5-0.9,0.8-1.3c0.5-0.6,1-1,1.7-1.2c0.2-0.1,0.5-0.2,0.9-0.3c0.4-0.1,0.8-0.1,1.1-0.1
	c0.2,0,0.3,0.1,0.4,0.3L381.1,378.9z M346.8,380.2l-0.2-0.1c-0.4-0.3-0.8-0.6-1.1-0.7c-0.3-0.1-0.6-0.2-0.9-0.2
	c-0.5,0-1,0.2-1.4,0.6c-0.3,0.2-0.6,0.6-0.8,1c-0.5,0.8-0.9,1.8-1.2,3.1c-0.3,1.3-0.5,2.4-0.5,3.5c0,0.5,0.1,0.9,0.2,1.2
	c0.2,0.5,0.6,0.7,1.2,0.7c0.7,0,1.4-0.3,2.1-1c0.7-0.8,1.2-1.8,1.5-3.1L346.8,380.2z M350.8,377.6l-2,9.3c-0.1,0.4-0.1,0.8-0.2,1.2
	c0,0.4,0,0.7,0,0.8l0.1,1.2l0.1,0.7c0,0.1-0.1,0.2-0.3,0.3l-2.5,1c-0.1,0-0.2,0-0.3,0.1c-0.1,0-0.2-0.1-0.3-0.2
	c-0.1-0.1-0.1-0.4-0.2-0.8c-0.1-0.4-0.1-0.7-0.1-1.1c0-0.3,0-0.5,0-0.6c-0.5,0.7-1.2,1.3-2.1,1.9c-0.9,0.5-1.8,0.8-2.7,0.8
	c-0.9,0-1.6-0.3-2.2-0.9c-0.7-0.8-1.1-2.1-1.1-3.8c0-1.6,0.2-3.1,0.6-4.5c0.4-1.4,1-2.6,1.6-3.5c0.7-0.9,1.4-1.7,2.3-2.1
	c0.8-0.5,1.7-0.7,2.5-0.7c0.7,0,1.4,0.2,2,0.5c0.5,0.3,0.9,0.6,1.2,1.1l0.3-0.8c0.1-0.2,0.2-0.3,0.4-0.3h2.3c0.2,0,0.3,0.1,0.3,0.4
	C350.9,377.4,350.9,377.5,350.8,377.6z M332.8,377.4l-3.1,13.8c-0.1,0.2-0.1,0.3-0.1,0.3c0,0-0.2,0.1-0.4,0.1h-2.8
	c-0.3,0-0.4-0.1-0.3-0.4l2.5-11.2H326l-0.1,0.4c-0.3,1.2-0.6,2.5-1.1,4c-0.6,2-1.2,3.5-1.7,4.5c-0.4,0.7-0.8,1.3-1.2,1.7
	c-0.5,0.5-1.1,0.9-1.8,1.2c-0.3,0.1-0.6,0.2-1,0.3c-0.4,0.1-0.7,0.1-1.1,0.1c-0.3,0-0.5-0.2-0.5-0.5l-0.1-2.2c0-0.3,0.2-0.5,0.6-0.5
	c0.3,0,0.6-0.1,0.9-0.2c0.3-0.1,0.6-0.4,0.8-0.6c0.3-0.4,0.7-0.9,0.9-1.5c0.5-1.1,1-2.6,1.4-4.4c0.1-0.6,0.4-1.7,0.8-3.4l0.3-1.3
	c0.1-0.3,0.2-0.4,0.5-0.4h8.7C332.8,376.9,332.9,377.1,332.8,377.4z M310.9,381.6c0-0.6-0.1-1-0.3-1.4c-0.3-0.5-0.8-0.8-1.4-0.8
	c-0.7,0-1.2,0.2-1.8,0.7c-0.4,0.3-0.7,0.8-1,1.3c-0.4,0.8-0.7,1.6-0.9,2.6c-0.2,1-0.3,1.9-0.3,2.9c0,0.6,0.1,1.1,0.3,1.4
	c0.3,0.5,0.7,0.8,1.4,0.8c0.5,0,1-0.1,1.4-0.4c0.6-0.4,1.1-1,1.5-2c0.4-0.8,0.6-1.6,0.8-2.5C310.9,383.3,310.9,382.4,310.9,381.6z
	 M314.7,381.8c0,1.5-0.2,2.9-0.7,4.2c-0.5,1.3-1.1,2.4-1.9,3.3c-0.9,1.1-2,1.8-3.3,2.2c-0.8,0.3-1.7,0.4-2.5,0.4
	c-1.1,0-2.1-0.3-2.9-0.8c-1.3-0.9-2-2.4-2-4.6c0-1.5,0.2-3,0.7-4.3c0.5-1.3,1.1-2.4,2-3.3c0.8-0.9,1.8-1.6,2.8-2c1-0.4,2-0.6,3-0.6
	c1.6,0,2.7,0.5,3.5,1.4C314.3,378.8,314.7,380.1,314.7,381.8z M298.3,378.9c0.1,0.3-0.1,0.4-0.5,0.5l-0.5,0.1
	c-0.3,0-0.6,0.1-0.8,0.3c-0.2,0.2-0.4,0.5-0.7,1.1l-0.6,1.1c-0.3,0.6-0.6,1.1-1,1.4c-0.4,0.3-0.8,0.5-1.3,0.6l0,0.1
	c0.6,0.2,1,0.5,1.3,0.9c0.2,0.3,0.3,0.7,0.4,1.2l0.2,1.6c0.1,0.4,0.1,0.7,0.3,0.8c0.1,0.1,0.3,0.2,0.6,0.3l0.5,0.1
	c0.2,0,0.3,0.1,0.3,0.2c0,0.1,0,0.2-0.1,0.4l-0.8,1.9c-0.2,0.3-0.4,0.4-0.7,0.4c-0.2,0-0.5,0-0.9-0.1c-0.4-0.1-0.7-0.1-0.9-0.2
	c-0.7-0.2-1.1-0.5-1.3-1c-0.2-0.4-0.3-0.9-0.3-1.4l-0.2-2.5c-0.1-0.6-0.2-1-0.4-1.2c-0.2-0.2-0.5-0.3-1-0.3h-1.3l-1.3,5.7
	c-0.1,0.3-0.3,0.4-0.6,0.4H284c-0.4,0-0.5-0.1-0.4-0.4l3.1-13.6c0-0.1,0.1-0.2,0.1-0.3c0.1-0.1,0.2-0.1,0.5-0.2l0.4-0.1l2.2-0.5
	c0.2-0.1,0.3-0.1,0.4,0c0.1,0.1,0.1,0.2,0,0.4l-1.3,5.6h1.3c0.6,0,1-0.1,1.2-0.3c0.3-0.2,0.5-0.6,0.8-1.2l0.8-1.7
	c0.2-0.5,0.5-0.9,0.8-1.3c0.5-0.6,1-1,1.7-1.2c0.2-0.1,0.5-0.2,0.9-0.3c0.4-0.1,0.8-0.1,1.1-0.1c0.2,0,0.3,0.1,0.4,0.3L298.3,378.9z
	 M280,376.8l-2.2,10.1c-0.2,0.8-0.3,1.4-0.3,2c0,0.4,0,0.7,0.1,1.1l0.1,0.7c0,0.1-0.1,0.2-0.3,0.3l-2.5,1c-0.1,0.1-0.2,0.1-0.3,0
	c-0.1,0-0.2-0.2-0.3-0.5c-0.2-0.6-0.2-1.4-0.2-2.4l-0.1,0.2c-0.3,0.3-0.4,0.5-0.5,0.6c-0.2,0.2-0.5,0.5-0.8,0.7
	c-0.7,0.6-1.3,1-2,1.2c-0.5,0.2-1,0.3-1.5,0.3c-0.9,0-1.6-0.3-2-1c-0.4-0.5-0.5-1.2-0.5-2c-0.2,0.3-0.4,0.6-0.6,0.8
	c-0.2,0.2-0.4,0.4-0.7,0.7c-0.7,0.6-1.4,1-2,1.3c-0.5,0.2-1,0.3-1.6,0.3c-0.7,0-1.2-0.1-1.6-0.4c-0.7-0.5-1-1.4-1-2.7
	c0-0.3,0-0.6,0.1-1.1c0.1-0.4,0.1-0.8,0.2-1.3l2.1-9.4c0-0.1,0.2-0.2,0.4-0.2c0.3-0.1,0.5-0.1,0.6-0.1l2.3-0.5c0.1,0,0.2,0,0.3,0
	c0.1,0,0.1,0.2,0.1,0.4l-2.1,9.5c-0.1,0.3-0.1,0.5-0.1,0.8c0,0.2-0.1,0.5-0.1,0.7c0,0.4,0.1,0.7,0.3,0.9c0.2,0.2,0.4,0.3,0.6,0.3
	c0.4,0,0.9-0.1,1.3-0.4c0.4-0.3,0.8-0.7,1.2-1.3c0.3-0.5,0.6-1.1,0.8-1.7c0.2-0.7,0.5-1.5,0.7-2.3l1.2-5.6c0.1-0.2,0.1-0.4,0.2-0.4
	c0.2,0,0.3-0.1,0.4-0.1l2.7-0.6c0.1,0,0.2,0,0.3,0c0.1,0,0.1,0.1,0.1,0.4l-2,9.2c-0.1,0.4-0.1,0.7-0.2,1c-0.1,0.3-0.1,0.6-0.1,0.8
	c0,0.4,0.1,0.6,0.3,0.8c0.2,0.2,0.4,0.3,0.8,0.3c0.9,0,1.8-0.6,2.4-1.8c0.3-0.4,0.5-1,0.8-1.8c0.3-0.8,0.5-1.5,0.6-2.1l1.2-5.6
	c0.1-0.2,0.1-0.4,0.2-0.4c0.2,0,0.3-0.1,0.4-0.1l2.7-0.6c0.1,0,0.2,0,0.3,0C280,376.5,280,376.6,280,376.8z"/>
<path class="st3" d="M636.6,387.1c0-0.5-0.1-0.8-0.4-1.1c-0.3-0.4-0.8-0.6-1.5-0.6h-1.6l-0.8,3.7l0.4,0.1c0.2,0.1,0.5,0.1,0.8,0.2
	c0.3,0,0.5,0.1,0.6,0.1c0.4,0,0.8,0,1.2-0.1c0.3-0.1,0.6-0.3,0.9-0.6C636.4,388.2,636.6,387.6,636.6,387.1 M637.6,380.5
	c0-0.9-0.5-1.4-1.4-1.4c-0.3,0-0.6,0.1-0.9,0.2c-0.2,0.1-0.4,0.3-0.6,0.5c-0.2,0.2-0.3,0.5-0.4,0.8c-0.1,0.3-0.2,0.9-0.4,1.5
	l-0.1,0.6h1.4c0.4,0,0.7,0,1-0.1c0.3-0.1,0.6-0.3,0.9-0.6C637.4,381.5,637.6,381,637.6,380.5z M641.1,380.1c0,0.9-0.3,1.8-0.8,2.4
	c-0.6,0.7-1.3,1.1-2.3,1.4c0.7,0.2,1.3,0.6,1.7,1.1c0.5,0.5,0.7,1.2,0.7,1.9c0,0.5-0.1,1.1-0.4,1.7c-0.2,0.6-0.5,1.1-0.9,1.5
	c-0.5,0.5-1,0.9-1.7,1.2c-0.9,0.4-2,0.6-3.2,0.6c-1.1,0-2.1-0.1-3.1-0.4c-1-0.3-1.8-0.6-2.3-0.9c-0.3-0.1-0.4-0.3-0.4-0.5
	c0-0.1,0-0.2,0.1-0.3l1.9-8.3c0.2-1,0.5-1.7,0.8-2.3c0.4-0.8,1-1.4,1.7-1.9c0.6-0.4,1.1-0.6,1.8-0.8c0.6-0.2,1.3-0.3,2.1-0.3
	c0.5,0,1,0.1,1.6,0.2c0.6,0.1,1.1,0.4,1.6,0.8c0.4,0.3,0.7,0.7,0.9,1.1C641,379,641.1,379.5,641.1,380.1z M621.4,380.5
	c0-0.5-0.1-0.8-0.4-1.1c-0.3-0.3-0.6-0.4-1.1-0.4c-0.8,0-1.5,0.3-2.1,0.9c-0.8,0.7-1.3,1.8-1.6,3.3h0.7c0.6,0,1.2-0.1,1.9-0.2
	c0.7-0.1,1.2-0.4,1.7-0.7C621,381.9,621.4,381.3,621.4,380.5z M624.9,380.3c0,0.8-0.1,1.5-0.4,2.1c-0.3,0.6-0.7,1.1-1.2,1.6
	c-0.8,0.7-2,1.2-3.4,1.5c-1.2,0.3-2.6,0.4-4.2,0.4v0.2c0,0.5,0,0.9,0.1,1.3c0.1,0.4,0.2,0.7,0.5,1c0.2,0.2,0.4,0.4,0.8,0.5
	c0.3,0.1,0.7,0.2,1.2,0.2c0.5,0,1-0.1,1.4-0.2c0.4-0.1,1-0.4,1.6-0.7c0.5-0.2,0.7-0.3,0.8-0.3c0.1,0,0.2,0.1,0.2,0.2l0.8,1.9
	c0.1,0.2-0.1,0.4-0.4,0.6c-0.7,0.4-1.4,0.7-2,0.9c-1,0.3-2.2,0.5-3.4,0.5c-1.6,0-2.8-0.4-3.6-1.3c-1-0.9-1.4-2.4-1.4-4.2
	c0-2,0.4-3.8,1.2-5.4c0.8-1.6,1.9-2.8,3.3-3.6c0.5-0.3,1-0.5,1.6-0.7c0.7-0.2,1.5-0.4,2.3-0.4c1.3,0,2.4,0.3,3.2,1
	C624.5,378.2,624.9,379.1,624.9,380.3z M607.7,389.3l-1.4,6c-0.1,0.2-0.2,0.4-0.3,0.4c-0.1,0.1-0.3,0.1-0.4,0.1l-2.2,0.6
	c-0.1,0-0.2,0-0.3,0c-0.1,0-0.1,0-0.1,0c0-0.1,0-0.3,0-0.4l1-4.5h-0.2c-0.8,0-1.5-0.3-1.8-0.9c-0.3-0.4-0.4-1-0.4-1.6l-0.2,0.2
	c-0.3,0.4-0.5,0.6-0.6,0.7c-0.2,0.2-0.4,0.4-0.6,0.6c-0.6,0.5-1.2,0.9-1.8,1.1c-0.6,0.2-1.2,0.4-1.7,0.4c-1,0-1.8-0.3-2.3-1
	c-0.5-0.6-0.7-1.3-0.7-2.1c0-0.4,0-0.7,0-0.9c0-0.2,0.1-0.7,0.3-1.4l2.1-9.3c0-0.2,0.2-0.3,0.4-0.4l0.4-0.1l2.2-0.4
	c0.3-0.1,0.5-0.1,0.6,0c0.1,0.1,0.1,0.2,0.1,0.3c0,0.1,0,0.2-0.1,0.4l-2.1,9.1c-0.1,0.3-0.1,0.5-0.1,0.7c0,0.2-0.1,0.5-0.1,0.8
	c0,0.5,0.1,0.8,0.3,0.9c0.2,0.2,0.4,0.2,0.7,0.2c0.4,0,0.7-0.1,1-0.2c0.3-0.1,0.6-0.3,0.9-0.6c0.5-0.5,0.9-1.1,1.3-1.9
	c0.3-0.7,0.6-1.7,0.9-3l1.3-5.8c0-0.2,0.2-0.3,0.4-0.4l2.5-0.5c0.1,0,0.3-0.1,0.3-0.1c0.1,0,0.2,0,0.3,0.1c0.1,0.1,0.1,0.1,0.1,0.3
	c0,0.1,0,0.1,0,0.2c0,0.1-0.1,0.1-0.1,0.1l-1.9,8.6c-0.1,0.4-0.2,0.7-0.2,1.1c0,0.3-0.1,0.6-0.1,0.7c0,0.3,0,0.5,0.1,0.7
	c0.1,0.2,0.2,0.4,0.4,0.7h1.5C607.6,388.9,607.7,389,607.7,389.3z"/>
<path class="st4" d="M663.3,371.6c0.5,2.8,0.9,5.6,1.4,8.4c3,0,6,0,9-0.1c-2.7,1.8-5.5,3.6-8.2,5.4c0.5,2.9,1,5.8,1.4,8.8
	c-2.2-1.8-4.3-3.6-6.5-5.5c-2.7,1.8-5.4,3.6-8,5.4c1.4-2.9,2.8-5.8,4.2-8.7c-2.1-1.8-4.1-3.5-6.1-5.2c2.9,0,5.8-0.1,8.7-0.1
	C660.6,377.2,662,374.4,663.3,371.6"/>
<path class="st4" d="M237.5,369.9c0.5,2.8,0.9,5.6,1.4,8.4c3,0,6,0,9-0.1c-2.7,1.8-5.5,3.6-8.2,5.4c0.5,2.9,1,5.8,1.4,8.8
	c-2.2-1.8-4.3-3.6-6.5-5.5c-2.7,1.8-5.4,3.6-8,5.4c1.4-2.9,2.8-5.8,4.2-8.7c-2.1-1.8-4.1-3.5-6.1-5.2c2.9,0,5.8-0.1,8.7-0.1
	C234.8,375.5,236.2,372.7,237.5,369.9"/>
</svg>
